<?xml version="1.0" encoding="UTF-8"?>
<!-- Uploaded to: SVG Repo, www.svgrepo.com, Generator: SVG Repo Mixer Tools -->
<svg width="800px" height="800px" viewBox="0 0 20 20" version="1.1" xmlns="http://www.w3.org/2000/svg" xmlns:xlink="http://www.w3.org/1999/xlink">
    <title>action / 48 - action, dashboard, speed, monitor, activity icon</title>
    <g id="Free-Icons" stroke="none" stroke-width="1" fill="none" fill-rule="evenodd" stroke-linecap="round" stroke-linejoin="round">
        <g transform="translate(-673.000000, -230.000000)" id="Group" stroke="#000000" stroke-width="2">
            <g transform="translate(671.000000, 228.000000)" id="Shape">
                <path d="M10.5857864,13.4142136 C9.80473785,12.633165 9.80473785,11.366835 10.5857864,10.5857864 C11.366835,9.80473785 12.633165,9.80473785 13.4142136,10.5857864 C14.1952621,11.366835 14.1952621,12.633165 13.4142136,13.4142136 C12.633165,14.1952621 11.366835,14.1952621 10.5857864,13.4142136 Z">
</path>
                <path d="M20.7542137,9.90220137 C20.9149123,10.5752765 21,11.2777016 21,12 C21,16.9705627 16.9705627,21 12,21 C7.02943725,21 3,16.9705627 3,12 C3,7.02943725 7.02943725,3 12,3 C12.889442,3 13.7487489,3.12902341 14.5602256,3.36937497">
</path>
                <line x1="14" y1="10" x2="19" y2="5">
</line>
            </g>
        </g>
    </g>
</svg>