<?xml version="1.0" encoding="UTF-8" standalone="no"?>
<!-- Uploaded to: SVG Repo, www.svgrepo.com, Generator: SVG Repo Mixer Tools -->

<svg
   fill="#000000"
   width="800px"
   height="800px"
   viewBox="0 -8 72 72"
   id="Layer_1"
   data-name="Layer 1"
   version="1.1"
   sodipodi:docname="tank-svgrepo-com.svg"
   inkscape:export-filename="tank-svgrepo-com.png"
   inkscape:export-xdpi="4"
   inkscape:export-ydpi="4"
   inkscape:version="1.4.4 (dcaf3e7, 2026-05-05)"
   xmlns:inkscape="http://www.inkscape.org/namespaces/inkscape"
   xmlns:sodipodi="http://sodipodi.sourceforge.net/DTD/sodipodi-0.dtd"
   xmlns="http://www.w3.org/2000/svg"
   xmlns:svg="http://www.w3.org/2000/svg">
  <defs
     id="defs2" />
  <sodipodi:namedview
     id="namedview2"
     pagecolor="#ffffff"
     bordercolor="#000000"
     borderopacity="0.25"
     inkscape:showpageshadow="2"
     inkscape:pageopacity="0.0"
     inkscape:pagecheckerboard="0"
     inkscape:deskcolor="#d1d1d1"
     inkscape:zoom="1.06375"
     inkscape:cx="400.47004"
     inkscape:cy="400"
     inkscape:window-width="1920"
     inkscape:window-height="1111"
     inkscape:window-x="-9"
     inkscape:window-y="-9"
     inkscape:window-maximized="1"
     inkscape:current-layer="Layer_1" />
  <title
     id="title1">tank</title>
  <path
     d="M39.18,21.67A6.47,6.47,0,0,0,39,20H64.08v-3h-27a6.37,6.37,0,0,0-3.28-1.59V13.92s.06,0,.06-.07a3.19,3.19,0,0,0-3.2-3.15H17.38V16A6.32,6.32,0,0,0,14,21.67s0,0,0,.07a9.71,9.71,0,0,1,1.21-.07Z"
     id="path1"
     style="fill:#ffcc00;fill-opacity:1" />
  <path
     d="M57.84,39.2v-.05a7.22,7.22,0,0,0,6-7.1V32a7.23,7.23,0,0,0-7.19-7.3H15.23A7.34,7.34,0,0,0,7.92,32v.06A7.22,7.22,0,0,0,14,39.15v.05a6.17,6.17,0,0,0,6.16,6.1H51.8a6,6,0,0,0,6-6.1ZM41.09,42.13a3.07,3.07,0,1,1,3.08-3.07A3.06,3.06,0,0,1,41.09,42.13ZM27.62,39.06a3.08,3.08,0,1,1,3.07,3.07A3.07,3.07,0,0,1,27.62,39.06Zm-10.4,0a3.08,3.08,0,1,1,3.07,3.07A3.07,3.07,0,0,1,17.22,39.06Zm34.27,3.07a3.07,3.07,0,1,1,3.08-3.07A3.06,3.06,0,0,1,51.49,42.13Z"
     id="path2"
     style="fill:#ffcc00;fill-opacity:1" />
</svg>
